# xmcd CD database file
#
# Track frame offsets:
#	150
#	14552
#	26385
#	39680
#	55112
#	70917
#
# Disc length: 1145 seconds
#
# Revision: 0
# Processed by: cddbd v1.4PL0 Copyright (c) Steve Scherf et al.
# Submitted via: CDex 1.50beta10
#
DISCID=49047706
DTITLE=WILD WOOD - Live
DYEAR=1900
DGENRE=Country
TTITLE0=I won´t be blue anymore
TTITLE1=Kill´n time
TTITLE2=It won´t hurt
TTITLE3=Can´t you hear me calli´n
TTITLE4=Lovi´n only me
TTITLE5=She´s gone gone gone
EXTD=
EXTT0=
EXTT1=
EXTT2=
EXTT3=
EXTT4=
EXTT5=
PLAYORDER=
